<svg viewBox="0 0 1500 1500" xmlns="http://www.w3.org/2000/svg">
  <defs></defs>
  <g style="fill: rgb(23, 33, 78);" transform="matrix(3, 0, 0, 3, -9.533077, -25.422045)">
    <circle cx="210.535" cy="163.251" r="132.407" transform="matrix(1.696202, 0.079221, -0.077395, 1.615317, -97.364418, -22.993313)" style="fill: white;"></circle>
    <g style="fill: rgb(23, 33, 78)" transform="matrix(1.258648, 0, 0, 1.275255, -68.251884, -55.327747)">
      <g>
        <g transform="matrix(0.025091, 0, 0, -0.024769, 5.165149, 494.281433)" style="" stroke="none" color="white" fill="rgb(23, 33, 78)">
          <path d="M9450 17929 c-1641 -116 -3175 -712 -4435 -1724 -424 -341 -879 -796
  -1220 -1220 -788 -981 -1337 -2157 -1584 -3390 -62 -309 -100 -577 -131 -920
  -18 -193 -31 -973 -20 -1150 106 -1639 707 -3192 1725 -4460 341 -424 796
  -879 1220 -1220 981 -788 2157 -1337 3390 -1584 309 -62 576 -100 920 -131
  188 -18 982 -31 1155 -19 1637 106 3188 707 4455 1724 424 341 879 796 1220
  1220 961 1197 1561 2677 1705 4205 27 290 33 397 37 720 5 347 -3 556 -33 845
  -154 1513 -749 2966 -1699 4150 -341 424 -796 879 -1220 1220 -937 752 -2057
  1290 -3229 1550 -402 89 -697 132 -1221 177 -157 14 -874 19 -1035 7z m1895
  -2373 c162 -55 306 -175 417 -346 68 -105 93 -154 151 -300 97 -243 140 -494
  141 -815 0 -243 -9 -332 -70 -700 -158 -951 -194 -1802 -114 -2689 55 -610 51
  -1143 -14 -1641 -8 -60 -18 -137 -21 -170 -9 -74 -27 -110 -68 -135 -53 -33
  -126 -23 -175 23 -33 30 -43 82 -32 152 17 101 39 416 51 710 17 437 1 876
  -49 1345 -25 234 -27 288 -27 660 0 552 14 691 180 1825 63 428 75 605 56 800
  -16 163 -54 345 -102 490 -113 343 -260 511 -475 546 -129 21 -235 -10 -314
  -91 -82 -84 -151 -248 -215 -515 -60 -246 -89 -465 -120 -905 -43 -617 -88
  -937 -164 -1169 -116 -352 -189 -474 -320 -535 -65 -30 -206 -29 -273 1 -131
  60 -197 153 -291 413 -82 228 -127 433 -187 845 -56 387 -168 1004 -221 1223
  -39 160 -103 361 -140 438 -72 153 -190 176 -298 59 -65 -72 -184 -308 -238
  -475 -85 -261 -108 -437 -107 -820 1 -410 28 -828 79 -1247 81 -657 91 -1117
  49 -2243 -9 -234 -17 -665 -17 -957 l-2 -533 -32 -31 c-26 -27 -41 -33 -85
  -36 -60 -4 -91 8 -121 49 -67 89 -69 1052 -6 2163 25 427 -6 949 -122 2059
  -80 773 -77 1034 17 1453 114 510 382 894 673 963 162 38 327 -60 439 -260 81
  -145 179 -454 237 -745 19 -93 66 -390 105 -660 99 -680 141 -885 234 -1149
  69 -194 100 -236 171 -236 51 0 77 44 128 215 117 392 168 715 227 1425 39
  469 77 702 150 920 106 317 239 509 412 596 104 52 164 64 303 60 98 -3 135
  -8 200 -30z m-2105 -5509 c30 -16 54 -39 74 -71 26 -41 30 -58 30 -119 1 -90
  -7 -118 -45 -162 -70 -79 -226 -82 -313 -6 -51 45 -78 159 -57 239 24 86 135
  158 226 147 22 -3 60 -16 85 -28z m2086 3 c111 -54 152 -207 89 -329 -21 -42
  -89 -98 -132 -110 -155 -43 -278 43 -291 206 -13 162 82 269 230 259 32 -2 78
  -14 104 -26z m-974 -2643 c175 -86 306 -320 268 -478 -31 -127 -196 -224 -265
  -155 -24 24 -30 41 -65 186 -11 46 -32 101 -46 123 -34 51 -107 97 -156 97
  -57 0 -78 -39 -78 -149 0 -103 20 -184 71 -282 50 -96 106 -158 272 -302 188
  -163 245 -242 268 -371 28 -164 -49 -377 -183 -501 -130 -121 -319 -135 -514
  -39 -143 71 -243 190 -280 335 -51 201 78 411 194 314 16 -14 58 -82 97 -157
  79 -155 123 -214 168 -226 71 -19 136 26 144 101 8 66 -25 116 -154 234 -292
  268 -349 331 -414 468 -119 246 -80 494 106 680 69 69 156 124 239 151 26 9
  80 13 147 11 99 -2 110 -4 181 -40z m4908 19 c92 -26 201 -85 256 -141 96 -96
  137 -213 136 -385 -2 -332 -177 -565 -468 -627 -44 -9 -82 -21 -85 -26 -3 -4
  -9 -75 -13 -157 -13 -294 -43 -473 -89 -526 -19 -22 -31 -26 -70 -26 -122 3
  -215 111 -253 294 -21 98 -20 409 1 633 31 330 96 761 131 866 20 61 39 77
  121 100 80 23 241 20 333 -5z m-2460 -1 c79 -41 64 -187 -76 -745 -190 -761
  -351 -1100 -521 -1100 -97 0 -140 44 -285 287 -40 67 -75 120 -77 117 -3 -2
  -15 -41 -28 -87 -48 -165 -96 -243 -173 -282 -66 -33 -130 -33 -198 1 -109 54
  -189 189 -246 415 -97 388 -194 1256 -148 1336 56 99 194 12 285 -178 59 -122
  108 -275 172 -533 l51 -208 23 63 c64 178 140 272 237 295 76 17 96 11 145
  -44 40 -46 138 -236 200 -389 18 -46 34 -81 36 -80 1 2 19 86 39 188 111 574
  224 848 383 931 61 32 134 37 181 13z m-8116 -16 c68 -31 293 -271 441 -469
  26 -36 52 -69 56 -74 4 -5 24 24 44 63 120 240 257 425 347 472 47 24 132 31
  174 14 159 -65 213 -500 163 -1310 -21 -345 -43 -477 -89 -528 -25 -28 -34
  -32 -73 -30 -87 3 -167 66 -213 168 -45 98 -57 214 -50 485 4 135 12 297 20
  360 7 63 12 116 11 118 -1 1 -22 -23 -45 -55 -80 -106 -149 -180 -226 -239
  -123 -94 -155 -82 -302 112 -45 60 -86 110 -91 112 -4 1 -11 -109 -14 -245 -7
  -266 -18 -423 -43 -598 -24 -173 -54 -220 -137 -217 -113 5 -204 115 -244 294
  -44 199 3 845 98 1348 27 141 46 196 76 220 32 25 43 25 97 -1z m2336 1 c150
  -76 306 -472 474 -1202 87 -378 113 -564 87 -627 -26 -61 -119 -78 -206 -37
  -100 46 -178 161 -251 371 -31 88 -46 120 -58 119 -9 0 -82 -1 -164 -2 l-147
  -2 -29 -81 c-40 -112 -99 -232 -151 -304 -74 -104 -164 -149 -215 -107 -22 18
  -25 29 -28 104 -7 181 125 936 223 1279 83 286 176 441 297 494 48 21 122 18
  168 -5z m6686 4 c97 -46 204 -230 298 -514 129 -390 286 -1070 286 -1240 0
  -107 -30 -141 -123 -141 -144 0 -258 132 -350 406 l-34 100 -163 0 c-153 0
  -163 -1 -171 -20 -4 -11 -26 -67 -48 -125 -48 -123 -99 -214 -160 -282 -51
  -57 -87 -78 -135 -78 -39 0 -63 19 -72 57 -18 72 28 428 112 863 122 635 242
  912 423 976 49 18 96 17 137 -2z m-4894 -18 c145 -28 277 -95 318 -160 52 -86
  2 -187 -115 -231 -66 -26 -132 -16 -251 38 -54 25 -111 49 -127 52 -118 29
  -186 -163 -203 -576 -7 -164 6 -371 31 -493 20 -95 70 -194 115 -224 93 -63
  213 32 274 216 28 84 56 225 56 284 l0 36 -144 4 c-128 3 -148 5 -173 24 -34
  26 -45 79 -31 147 14 66 56 113 121 132 64 19 217 19 359 0 193 -25 233 -45
  233 -114 0 -46 -25 -84 -76 -119 l-34 -23 -6 -147 c-4 -81 -14 -181 -24 -222
  -25 -113 -93 -246 -158 -311 -168 -167 -437 -229 -650 -149 -256 96 -398 418
  -399 905 0 537 166 831 522 924 92 24 256 27 362 7z" style=""></path>
          <path d="M15060 7188 c0 -2 7 -39 15 -83 17 -87 35 -355 35 -527 l0 -107 44
  15 c117 40 179 175 180 394 0 103 -2 121 -26 171 -30 66 -72 101 -147 123 -48
  14 -101 21 -101 14z" style=""></path>
          <path d="M6892 6484 c-29 -108 -52 -198 -50 -199 2 -2 44 -4 93 -6 74 -2 90 0
  88 12 -1 7 -13 75 -27 149 -14 74 -28 159 -32 188 -3 28 -9 52 -13 52 -3 0
  -30 -88 -59 -196z"></path>
          <path d="M13596 6497 c-26 -100 -50 -189 -53 -198 -4 -14 10 -17 87 -23 51 -4
  94 -6 95 -4 1 2 -6 44 -15 93 -10 50 -27 141 -37 203 -10 61 -20 112 -23 112
  -3 0 -27 -82 -54 -183z"></path>
        </g>
      </g>
    </g>
  </g>
</svg>