<?xml version="1.0" standalone="no"?>
<!DOCTYPE svg PUBLIC "-//W3C//DTD SVG 20010904//EN"
 "http://www.w3.org/TR/2001/REC-SVG-20010904/DTD/svg10.dtd">
<svg version="1.0" xmlns="http://www.w3.org/2000/svg"  viewBox="15.562 14.154 468.876 471.691" width="468.876" height="471.691">
  <g transform="matrix(0.030696, 0, 0, -0.030879, 15.493045, 485.929528)" fill="#000000" stroke="none" style="">
    <circle style="fill: rgb(255, 244, 244);" cx="250" cy="250" r="250" transform="matrix(28.762104, 0, 0, -29.455709, 492.278992, 15105.326172)"></circle>
    <path d="M7260 15269 c-1624 -80 -3167 -672 -4439 -1703 -592 -480 -1115
-1057 -1546 -1706 -631 -950 -1034 -2006 -1194 -3125 -105 -732 -105 -1458 0
-2190 194 -1362 756 -2642 1633 -3724 158 -195 335 -390 526 -581 749 -750
1627 -1324 2620 -1715 1202 -474 2537 -630 3840 -449 1356 188 2632 737 3710
1599 1516 1212 2516 2957 2789 4870 124 868 100 1751 -70 2600 -244 1216 -775
2342 -1563 3314 -317 391 -716 790 -1107 1107 -620 503 -1298 898 -2039 1189
-993 390 -2080 567 -3160 514z m2154 -404 c402 -61 735 -332 968 -790 233
-458 338 -919 338 -1490 0 -335 -19 -522 -105 -1045 -99 -598 -154 -1069 -191
-1625 -21 -328 -30 -1135 -15 -1451 12 -255 37 -627 46 -699 18 -136 46 -558
56 -838 21 -589 -20 -1286 -111 -1891 -28 -180 -156 -296 -329 -296 -148 0
-272 71 -332 190 -28 55 -37 178 -20 283 28 182 56 614 72 1115 18 592 -9
1229 -81 1882 -89 802 -54 1568 126 2820 14 96 36 249 50 340 84 566 125 875
134 1025 26 448 -51 902 -220 1303 -65 153 -119 240 -203 329 -113 118 -260
175 -415 159 -181 -19 -276 -129 -381 -443 -101 -303 -167 -628 -210 -1048
-19 -182 -32 -343 -66 -830 -28 -395 -73 -790 -120 -1040 -67 -353 -245 -845
-369 -1019 -140 -197 -348 -300 -572 -282 -253 19 -444 154 -580 411 -56 104
-80 164 -155 384 -116 339 -173 602 -259 1201 -35 240 -52 343 -139 835 -134
761 -190 999 -313 1345 -69 194 -101 243 -159 243 -62 0 -139 -106 -268 -374
-218 -451 -296 -923 -270 -1638 21 -604 62 -1141 124 -1641 61 -488 79 -734
96 -1304 13 -422 6 -875 -31 -2016 -27 -834 -32 -1219 -21 -1594 7 -223 6
-347 0 -385 -29 -156 -149 -258 -316 -269 -40 -2 -94 1 -120 7 -105 26 -197
116 -228 226 -21 73 -43 345 -56 704 -16 409 0 1049 51 2111 6 118 15 312 21
430 25 524 -25 1288 -181 2780 -69 663 -81 801 -87 1020 -12 496 48 964 182
1403 121 399 311 726 561 967 195 188 371 270 583 270 111 0 191 -19 282 -66
241 -127 398 -363 560 -844 133 -398 195 -702 324 -1600 139 -962 201 -1263
337 -1645 63 -176 80 -217 89 -208 4 4 19 46 33 93 14 47 36 123 50 170 142
486 210 929 296 1955 49 579 81 807 151 1094 99 405 274 773 463 978 151 163
355 271 571 303 86 13 256 10 359 -5z m-2949 -7980 c127 -33 212 -104 268
-223 31 -64 32 -72 32 -192 0 -121 -1 -127 -32 -191 -38 -77 -92 -130 -172
-168 -51 -24 -67 -26 -181 -26 -114 0 -130 2 -182 27 -153 72 -238 230 -225
419 11 169 115 291 297 350 69 22 119 23 195 4z m2744 4 c108 -25 211 -99 265
-191 14 -25 36 -83 47 -128 20 -76 20 -90 8 -159 -42 -246 -223 -394 -461
-378 -197 13 -341 154 -371 363 -21 146 19 287 109 384 46 49 124 95 187 110
47 12 165 11 216 -1z m-1144 -2614 c81 -21 156 -68 221 -138 94 -101 154 -264
135 -364 -18 -94 -101 -172 -190 -181 -74 -7 -92 16 -125 160 -32 137 -64 195
-133 239 -62 39 -116 38 -147 -4 -18 -25 -21 -42 -20 -135 0 -94 4 -117 31
-187 55 -148 105 -211 293 -375 161 -140 212 -194 251 -271 76 -150 50 -355
-67 -531 -87 -130 -191 -188 -339 -188 -255 0 -488 180 -535 415 -31 150 40
315 135 315 47 0 89 -51 161 -194 93 -185 151 -238 234 -216 45 12 77 48 86
95 14 78 -27 132 -270 353 -225 205 -313 328 -357 500 -35 138 -23 263 38 392
28 57 55 93 117 155 149 147 315 203 481 160z m4721 -20 c90 -26 172 -72 234
-131 98 -93 140 -208 140 -379 -1 -348 -186 -588 -491 -638 l-67 -11 -6 -106
c-27 -433 -56 -593 -111 -614 -61 -23 -150 7 -205 70 -86 98 -113 218 -113
489 1 215 10 337 49 650 50 402 93 614 131 646 66 55 291 67 439 24z m-2291
11 c45 -19 55 -42 55 -124 0 -172 -135 -744 -276 -1172 -133 -404 -260 -585
-394 -564 -72 12 -125 72 -259 297 -38 65 -73 118 -77 118 -5 0 -19 -40 -31
-88 -42 -158 -99 -256 -172 -292 -58 -30 -96 -34 -154 -17 -212 62 -322 377
-417 1201 -46 403 -48 557 -9 596 40 40 116 14 179 -60 97 -112 185 -355 285
-784 l28 -118 42 105 c77 196 139 262 256 272 l65 7 41 -46 c44 -50 116 -191
198 -384 l52 -124 12 78 c33 209 108 530 161 694 76 233 186 381 304 409 49
12 74 11 111 -4z m-5483 -28 c73 -41 155 -171 232 -366 118 -300 317 -1106
333 -1344 9 -146 -16 -184 -122 -183 -133 2 -251 144 -339 406 l-35 104 -170
3 -169 2 -18 -47 c-79 -215 -139 -329 -214 -404 -75 -75 -156 -86 -180 -24
-22 59 -6 237 56 610 84 507 172 851 264 1035 48 95 126 184 185 211 56 26
128 24 177 -3z m6310 0 c73 -41 155 -171 232 -366 118 -300 317 -1106 333
-1344 9 -146 -16 -184 -122 -183 -133 2 -251 144 -339 406 l-35 104 -170 3
-169 2 -18 -47 c-79 -215 -139 -329 -214 -404 -75 -75 -156 -86 -180 -24 -22
59 -6 237 56 610 84 507 172 851 264 1035 48 95 126 184 185 211 56 26 128 24
177 -3z m-8554 -7 c63 -32 316 -306 447 -484 27 -37 52 -64 57 -59 4 4 34 58
68 120 126 235 241 385 325 423 25 12 63 19 102 19 55 0 66 -4 96 -30 58 -50
104 -174 129 -349 29 -194 12 -958 -27 -1265 -25 -190 -50 -236 -130 -236
-124 1 -214 111 -251 307 -25 132 -14 562 21 817 l6 38 -53 -70 c-135 -179
-282 -312 -346 -312 -38 0 -102 61 -194 184 l-93 124 -7 -166 c-18 -447 -44
-731 -73 -830 -22 -72 -44 -92 -100 -92 -118 0 -211 107 -252 292 -13 56 -17
122 -17 283 1 218 8 316 50 645 49 392 91 598 130 641 22 24 64 24 112 0z
m3950 -6 c288 -60 404 -214 258 -342 -79 -70 -171 -70 -322 0 -127 60 -181 63
-225 16 -33 -36 -62 -122 -87 -259 -25 -142 -24 -638 1 -765 23 -111 58 -192
103 -236 31 -30 41 -34 89 -34 44 0 59 5 92 31 94 76 156 238 179 467 l6 67
-123 0 c-204 1 -239 18 -239 117 0 56 22 114 57 145 45 41 93 52 223 52 210 0
395 -34 425 -76 33 -48 4 -120 -67 -166 l-35 -24 -6 -156 c-6 -181 -26 -273
-84 -392 -93 -191 -314 -320 -547 -320 -240 0 -411 126 -507 374 -116 300
-128 748 -28 1051 77 233 234 388 451 445 91 24 286 27 386 5z" style="fill: rgb(23, 33, 78);"></path>
    <path d="M12564 4018 c23 -81 38 -242 43 -466 l6 -253 26 6 c108 27 160 95
196 260 13 56 16 105 13 179 -9 192 -70 265 -242 290 -48 7 -49 7 -42 -16z" style="fill: rgb(23, 33, 78);"></path>
    <path d="M4915 3458 c-10 -40 -35 -136 -56 -213 -21 -76 -37 -140 -36 -141 1
-1 46 -4 100 -6 l99 -4 -5 26 c-36 215 -73 410 -78 410 -4 0 -15 -33 -24 -72z" style="fill: rgb(23, 33, 78);"></path>
    <path d="M11225 3458 c-10 -40 -35 -136 -56 -213 -21 -76 -37 -140 -36 -141 1
-1 46 -4 100 -6 l99 -4 -5 26 c-36 215 -73 410 -78 410 -4 0 -15 -33 -24 -72z" style="fill: rgb(23, 33, 78);"></path>
  </g>
</svg>